<?xml version="1.0" encoding="UTF-8" standalone="no"?>
<!-- Created with Inkscape (http://www.inkscape.org/) -->

<svg
   xmlns:dc="http://purl.org/dc/elements/1.1/"
   xmlns:cc="http://creativecommons.org/ns#"
   xmlns:rdf="http://www.w3.org/1999/02/22-rdf-syntax-ns#"
   xmlns:svg="http://www.w3.org/2000/svg"
   xmlns="http://www.w3.org/2000/svg"
   xmlns:sodipodi="http://sodipodi.sourceforge.net/DTD/sodipodi-0.dtd"
   xmlns:inkscape="http://www.inkscape.org/namespaces/inkscape"
   width="16"
   height="16"
   id="svg2"
   version="1.1"
   inkscape:version="0.91+devel r"
   sodipodi:docname="axes.svg"
   inkscape:export-filename="/home/kenneth/git/code/src/net/sourceforge/jocular/icons/zyClip24.png"
   inkscape:export-xdpi="144"
   inkscape:export-ydpi="144"
   viewBox="0 0 16 16">
  <defs
     id="defs4">
    <inkscape:perspective
       sodipodi:type="inkscape:persp3d"
       inkscape:vp_x="-37.795276 : 147.40157 : 1"
       inkscape:vp_y="0 : 1000 : 0"
       inkscape:vp_z="177.16534 : 88.582672 : 1"
       inkscape:persp3d-origin="88.582672 : 59.055114 : 1"
       id="perspective4231" />
  </defs>
  <sodipodi:namedview
     id="base"
     pagecolor="#ffffff"
     bordercolor="#666666"
     borderopacity="1.0"
     inkscape:pageopacity="0.0"
     inkscape:pageshadow="2"
     inkscape:zoom="5.1200001"
     inkscape:cx="-48.13099"
     inkscape:cy="5.2656249"
     inkscape:document-units="px"
     inkscape:current-layer="layer1"
     showgrid="true"
     width="0px"
     height="0px"
     fit-margin-top="0"
     fit-margin-left="0"
     fit-margin-right="0"
     fit-margin-bottom="0"
     inkscape:snap-object-midpoints="false"
     inkscape:snap-center="false"
     showguides="true"
     inkscape:guide-bbox="true"
     inkscape:object-nodes="true"
     inkscape:window-width="1301"
     inkscape:window-height="744"
     inkscape:window-x="65"
     inkscape:window-y="24"
     inkscape:window-maximized="1"
     inkscape:snap-nodes="true"
     units="px"
     inkscape:snap-global="true"
     inkscape:snap-grids="false"
     inkscape:snap-bbox="false"
     inkscape:snap-midpoints="true"
     inkscape:locked="false"
     inkscape:snap-text-baseline="false"
     inkscape:object-paths="false"
     inkscape:snap-to-guides="true"
     inkscape:snap-page="false">
    <inkscape:grid
       type="xygrid"
       id="grid778"
       empspacing="5"
       visible="true"
       enabled="true"
       snapvisiblegridlinesonly="true"
       units="px"
       spacingx="1"
       spacingy="1"
       originx="0mm"
       originy="0mm" />
    <sodipodi:guide
       position="-42.382812,-50.781249"
       orientation="0,1"
       id="guide4237"
       inkscape:locked="false" />
    <sodipodi:guide
       position="1,26"
       orientation="1,0"
       id="guide4897"
       inkscape:locked="false" />
    <sodipodi:guide
       position="15,22"
       orientation="1,0"
       id="guide4899"
       inkscape:locked="false" />
    <sodipodi:guide
       position="8,16"
       orientation="1,0"
       id="guide4901"
       inkscape:locked="false" />
  </sodipodi:namedview>
  <metadata
     id="metadata7">
    <rdf:RDF>
      <cc:Work
         rdf:about="">
        <dc:format>image/svg+xml</dc:format>
        <dc:type
           rdf:resource="http://purl.org/dc/dcmitype/StillImage" />
        <dc:title></dc:title>
      </cc:Work>
    </rdf:RDF>
  </metadata>
  <g
     inkscape:label="Layer 1"
     inkscape:groupmode="layer"
     id="layer1"
     transform="translate(-127.55906,-398.56694)">
    <g
       id="g4912"
       transform="translate(-97.85156,-10.351562)">
      <ellipse
         ry="2.6623042"
         rx="2.6588063"
         cy="410.36621"
         cx="203.06013"
         id="path784"
         style="color:#000000;display:inline;overflow:visible;visibility:visible;fill:#ffffff;fill-opacity:1;fill-rule:nonzero;stroke:none;stroke-width:0.03325693;marker:none;enable-background:accumulate" />
      <path
         inkscape:transform-center-y="-1.2420005e-05"
         sodipodi:nodetypes="cc"
         style="color:#000000;display:inline;overflow:visible;visibility:visible;fill:none;stroke:#ffffff;stroke-width:1.33027732;stroke-linecap:butt;stroke-linejoin:miter;stroke-miterlimit:4;stroke-dasharray:none;stroke-dashoffset:0;stroke-opacity:1;marker:none;enable-background:accumulate"
         d="m 203.06017,410.36619 h -6.31468"
         id="path808"
         inkscape:connector-curvature="0"
         inkscape:transform-center-x="2.4926282" />
      <ellipse
         ry="8.3197031"
         rx="8.308773"
         cy="407.03833"
         cx="206.38367"
         id="path780"
         style="color:#000000;display:inline;overflow:visible;visibility:visible;fill:#7700ff;fill-opacity:1;stroke:none;stroke-width:0.03325693;marker:none;enable-background:accumulate" />
      <ellipse
         ry="4.825428"
         rx="4.819087"
         cy="409.20145"
         cx="204.22337"
         id="path874"
         style="color:#000000;display:inline;overflow:visible;visibility:visible;fill:#ffffff;fill-opacity:1;fill-rule:nonzero;stroke:none;stroke-width:0.89556164;marker:none;enable-background:accumulate" />
      <ellipse
         ry="2.9950922"
         rx="2.9911563"
         cy="410.36621"
         cx="203.06013"
         style="color:#000000;display:inline;overflow:visible;visibility:visible;fill:#7700ff;fill-opacity:1;fill-rule:nonzero;stroke:none;stroke-width:0.03325693;marker:none;enable-background:accumulate"
         id="path816" />
      <path
         inkscape:connector-curvature="0"
         id="path2995"
         d="m 214.47175,408.95594 -15.05145,1.07714 c -0.01,0.10993 -0.0147,0.22204 -0.0147,0.33458 0,0.11252 0.005,0.22466 0.0147,0.33459 l 13.85259,0.9891 c 0.55286,-0.81938 0.96523,-1.7436 1.19886,-2.73541 z"
         style="fill:#d6b1ff;fill-opacity:1;stroke:#000000;stroke-width:0.09385847px;stroke-linecap:butt;stroke-linejoin:miter;stroke-opacity:0" />
      <ellipse
         ry="3.6606674"
         rx="3.6558585"
         cy="410.36621"
         cx="203.06013"
         id="path784-4-9"
         style="color:#000000;display:inline;overflow:visible;visibility:visible;fill:#d6b1ff;fill-opacity:1;fill-rule:nonzero;stroke:none;stroke-width:0.03325693;marker:none;enable-background:accumulate" />
      <path
         inkscape:connector-curvature="0"
         id="path2999"
         d="m 211.09213,400.18318 -10.81595,12.49432 c 0.15165,0.16458 0.31053,0.32359 0.47486,0.47549 l 12.47789,-10.82726 c -0.57645,-0.83789 -1.3,-1.56532 -2.1368,-2.14255 z"
         style="fill:#d6b1ff;fill-opacity:1;stroke:#000000;stroke-width:0.09385847px;stroke-linecap:butt;stroke-linejoin:miter;stroke-opacity:0" />
      <ellipse
         ry="1.9967278"
         rx="1.9941043"
         cy="410.36621"
         cx="203.06013"
         style="color:#000000;display:inline;overflow:visible;visibility:visible;fill:#7700ff;fill-opacity:1;fill-rule:nonzero;stroke:none;stroke-width:0.03325693;marker:none;enable-background:accumulate"
         id="path816-0-4" />
    </g>
    <g
       id="g4254"
       transform="matrix(0.09379679,0,0,0.09392019,115.26358,476.66964)">
      <path
         inkscape:connector-curvature="0"
         id="path4289"
         d="m 141.74938,375.89878 c 23.36768,10.41542 46.73538,20.83085 70.10306,31.24626 0,-31.97863 0,-63.95727 0,-95.9359 -23.36768,-10.41542 -46.73538,-20.83084 -70.10306,-31.24626 0,31.97864 0,63.95727 0,95.9359 z"
         style="fill:#d6b1ff;fill-opacity:1;fill-rule:evenodd;stroke:none;stroke-width:3.59023356;stroke-linecap:butt;stroke-linejoin:miter;stroke-miterlimit:4;stroke-dasharray:none;stroke-opacity:1" />
      <path
         inkscape:connector-curvature="0"
         id="path4291"
         d="m 220.90282,311.20914 c 0,31.97863 0,63.95727 0,95.9359 23.36846,-10.41541 46.73692,-20.83084 70.10539,-31.24626 0,-31.97863 0,-63.95726 0,-95.9359 -23.36847,10.41542 -46.73693,20.83084 -70.10539,31.24626 z"
         style="fill:#7700ff;fill-opacity:1;fill-rule:evenodd;stroke:none;stroke-width:3.59023356;stroke-linecap:butt;stroke-linejoin:miter;stroke-miterlimit:4;stroke-dasharray:none;stroke-opacity:1" />
      <path
         inkscape:connector-curvature="0"
         id="path4302"
         d="m 148.33616,272.99278 c 22.68048,10.10845 45.36097,20.21688 68.04147,30.32532 22.68126,-10.10844 45.36254,-20.21687 68.0438,-30.32532 -22.68126,-10.10844 -45.36254,-20.21688 -68.0438,-30.32532 -22.6805,10.10844 -45.36099,20.21688 -68.04147,30.32532 z"
         style="fill:#d6b1ff;fill-opacity:1;fill-rule:evenodd;stroke:none;stroke-width:3.59023356;stroke-linecap:butt;stroke-linejoin:miter;stroke-miterlimit:4;stroke-dasharray:none;stroke-opacity:1" />
    </g>
    <g
       id="g4270"
       transform="matrix(0.09379679,0,0,0.09392019,142.88146,457.79505)">
      <path
         style="fill:#d6b1ff;fill-opacity:1;fill-rule:evenodd;stroke:none;stroke-width:3.59023356;stroke-linecap:butt;stroke-linejoin:miter;stroke-miterlimit:4;stroke-dasharray:none;stroke-opacity:1"
         d="m -152.6943,183.1017 c 23.36768,10.41542 46.73538,20.83085 70.103062,31.24626 0,-31.97863 0,-63.95727 0,-95.9359 -23.367682,-10.41542 -46.735382,-20.830836 -70.103062,-31.246256 0,31.978636 0,63.957266 0,95.935896 z"
         id="path4225"
         inkscape:connector-curvature="0" />
      <path
         style="fill:#d6b1ff;fill-opacity:1;fill-rule:evenodd;stroke:none;stroke-width:3.59023356;stroke-linecap:butt;stroke-linejoin:miter;stroke-miterlimit:4;stroke-dasharray:none;stroke-opacity:1"
         d="m -73.540858,118.41206 c 0,31.97863 0,63.95727 0,95.9359 23.36846,-10.41541 46.736918,-20.83084 70.105388,-31.24626 0,-31.97863 0,-63.95726 0,-95.935896 -23.36847,10.41542 -46.736928,20.830836 -70.105388,31.246256 z"
         id="path4227"
         inkscape:connector-curvature="0" />
      <path
         style="fill:#d6b1ff;fill-opacity:1;fill-rule:evenodd;stroke:none;stroke-width:3.59023356;stroke-linecap:butt;stroke-linejoin:miter;stroke-miterlimit:4;stroke-dasharray:none;stroke-opacity:1"
         d="m -146.10752,80.195704 c 22.68048,10.10845 45.36097,20.216876 68.041472,30.325316 22.68126,-10.10844 45.362538,-20.216866 68.043798,-30.325316 -22.68126,-10.10844 -45.362538,-20.21688 -68.043798,-30.325323 -22.680502,10.108443 -45.360992,20.216883 -68.041472,30.325323 z"
         id="path4229"
         inkscape:connector-curvature="0" />
    </g>
    <g
       id="g4249"
       transform="matrix(0.09379679,0,0,0.09392019,105.8332,516.14883)">
      <path
         inkscape:connector-curvature="0"
         id="path4231"
         d="m 242.29112,195.2551 c 23.36768,10.41542 46.73538,20.83085 70.10306,31.24626 0,-31.97863 0,-63.95727 0,-95.9359 -23.36768,-10.41542 -46.73538,-20.83084 -70.10306,-31.246258 0,31.978638 0,63.957268 0,95.935898 z"
         style="fill:#7700ff;fill-opacity:1;fill-rule:evenodd;stroke:none;stroke-width:3.59023356;stroke-linecap:butt;stroke-linejoin:miter;stroke-miterlimit:4;stroke-dasharray:none;stroke-opacity:1" />
      <path
         inkscape:connector-curvature="0"
         id="path4233"
         d="m 321.44456,130.56546 c 0,31.97863 0,63.95727 0,95.9359 23.36846,-10.41541 46.73692,-20.83084 70.10539,-31.24626 0,-31.97863 0,-63.95726 0,-95.935898 -23.36847,10.415418 -46.73693,20.830838 -70.10539,31.246258 z"
         style="fill:#d6b1ff;fill-opacity:1;fill-rule:evenodd;stroke:none;stroke-width:3.59023356;stroke-linecap:butt;stroke-linejoin:miter;stroke-miterlimit:4;stroke-dasharray:none;stroke-opacity:1" />
      <path
         inkscape:connector-curvature="0"
         id="path4235"
         d="m 248.8779,92.349102 c 22.68048,10.108448 45.36097,20.216878 68.04147,30.325318 22.68126,-10.10844 45.36254,-20.21687 68.0438,-30.325318 -22.68126,-10.10844 -45.36254,-20.21688 -68.0438,-30.325323 -22.6805,10.108443 -45.36099,20.216883 -68.04147,30.325323 z"
         style="fill:#d6b1ff;fill-opacity:1;fill-rule:evenodd;stroke:none;stroke-width:3.59023356;stroke-linecap:butt;stroke-linejoin:miter;stroke-miterlimit:4;stroke-dasharray:none;stroke-opacity:1" />
    </g>
    <g
       transform="matrix(0.09379679,0,0,0.09392019,130.08304,471.95879)"
       id="g4262">
      <path
         inkscape:connector-curvature="0"
         id="path4256"
         d="m -16.244788,230.61044 c 23.3676801,10.41542 46.73538,20.83085 70.10306,31.24626 0,-31.97863 0,-63.95727 0,-95.9359 -23.36768,-10.41542 -46.7353799,-20.83084 -70.10306,-31.24626 0,31.97864 0,63.95727 0,95.9359 z"
         style="fill:#d6b1ff;fill-opacity:1;fill-rule:evenodd;stroke:none;stroke-width:3.59023356;stroke-linecap:butt;stroke-linejoin:miter;stroke-miterlimit:4;stroke-dasharray:none;stroke-opacity:1" />
      <path
         inkscape:connector-curvature="0"
         id="path4258"
         d="m 62.908652,165.9208 c 0,31.97863 0,63.95727 0,95.9359 23.36846,-10.41541 46.736918,-20.83084 70.105388,-31.24626 0,-31.97863 0,-63.95726 0,-95.9359 -23.36847,10.41542 -46.736928,20.83084 -70.105388,31.24626 z"
         style="fill:#d6b1ff;fill-opacity:1;fill-rule:evenodd;stroke:none;stroke-width:3.59023356;stroke-linecap:butt;stroke-linejoin:miter;stroke-miterlimit:4;stroke-dasharray:none;stroke-opacity:1" />
      <path
         inkscape:connector-curvature="0"
         id="path4260"
         d="M -9.6580079,127.70444 C 13.022472,137.81289 35.702962,147.92132 58.383462,158.02976 81.064722,147.92132 103.746,137.81289 126.42726,127.70444 103.746,117.596 81.064722,107.48756 58.383462,97.379117 35.702962,107.48756 13.022472,117.596 -9.6580079,127.70444 Z"
         style="fill:#7700ff;fill-opacity:1;fill-rule:evenodd;stroke:none;stroke-width:3.59023356;stroke-linecap:butt;stroke-linejoin:miter;stroke-miterlimit:4;stroke-dasharray:none;stroke-opacity:1" />
    </g>
    <g
       id="g4351"
       transform="matrix(0.09379679,0,0,0.09392019,163.97063,437.40362)">
      <g
         transform="translate(-224.83785,-24.306795)"
         id="g4278">
        <path
           style="fill:#d6b1ff;fill-opacity:1;fill-rule:evenodd;stroke:none;stroke-width:3.59023356;stroke-linecap:butt;stroke-linejoin:miter;stroke-miterlimit:4;stroke-dasharray:none;stroke-opacity:1"
           d="m -152.6943,183.1017 c 23.36768,10.41542 46.73538,20.83085 70.103062,31.24626 0,-31.97863 0,-63.95727 0,-95.9359 -23.367682,-10.41542 -46.735382,-20.830836 -70.103062,-31.246256 0,31.978636 0,63.957266 0,95.935896 z"
           id="path4272"
           inkscape:connector-curvature="0" />
        <path
           style="fill:#d6b1ff;fill-opacity:1;fill-rule:evenodd;stroke:none;stroke-width:3.59023356;stroke-linecap:butt;stroke-linejoin:miter;stroke-miterlimit:4;stroke-dasharray:none;stroke-opacity:1"
           d="m -73.540858,118.41206 c 0,31.97863 0,63.95727 0,95.9359 23.36846,-10.41541 46.736918,-20.83084 70.105388,-31.24626 0,-31.97863 0,-63.95726 0,-95.935896 -23.36847,10.41542 -46.736928,20.830836 -70.105388,31.246256 z"
           id="path4274"
           inkscape:connector-curvature="0" />
        <path
           style="fill:#d6b1ff;fill-opacity:1;fill-rule:evenodd;stroke:none;stroke-width:3.59023356;stroke-linecap:butt;stroke-linejoin:miter;stroke-miterlimit:4;stroke-dasharray:none;stroke-opacity:1"
           d="m -146.10752,80.195704 c 22.68048,10.10845 45.36097,20.216876 68.041472,30.325316 22.68126,-10.10844 45.362538,-20.216866 68.043798,-30.325316 -22.68126,-10.10844 -45.362538,-20.21688 -68.043798,-30.325323 -22.680502,10.108443 -45.360992,20.216883 -68.041472,30.325323 z"
           id="path4276"
           inkscape:connector-curvature="0" />
      </g>
      <path
         sodipodi:nodetypes="ccccc"
         inkscape:connector-curvature="0"
         id="path4280"
         d="m -377.53215,158.7949 70.10306,31.24626 v -47.96794 l -70.10306,-31.24626 z"
         style="fill:#7700ff;fill-opacity:1;fill-rule:evenodd;stroke:none;stroke-width:1px;stroke-linecap:butt;stroke-linejoin:miter;stroke-opacity:1" />
      <path
         style="fill:#7700ff;fill-opacity:1;fill-rule:evenodd;stroke:none;stroke-width:1px;stroke-linecap:butt;stroke-linejoin:miter;stroke-opacity:1"
         d="m -228.27565,158.7949 -70.10306,31.24626 v -47.96794 l 70.10306,-31.24625 z"
         id="path4284"
         inkscape:connector-curvature="0"
         sodipodi:nodetypes="ccccc" />
    </g>
    <g
       id="g4359"
       transform="matrix(0.09379679,0,0,0.09392019,172.2092,379.2518)">
      <g
         id="g4311"
         transform="translate(-312.67377,155.78446)">
        <path
           inkscape:connector-curvature="0"
           id="path4305"
           d="m -152.6943,183.1017 c 23.36768,10.41542 46.73538,20.83085 70.103062,31.24626 0,-31.97863 0,-63.95727 0,-95.9359 -23.367682,-10.41542 -46.735382,-20.830836 -70.103062,-31.246256 0,31.978636 0,63.957266 0,95.935896 z"
           style="fill:#d6b1ff;fill-opacity:1;fill-rule:evenodd;stroke:none;stroke-width:3.59023356;stroke-linecap:butt;stroke-linejoin:miter;stroke-miterlimit:4;stroke-dasharray:none;stroke-opacity:1" />
        <path
           inkscape:connector-curvature="0"
           id="path4307"
           d="m -73.540858,118.41206 c 0,31.97863 0,63.95727 0,95.9359 23.36846,-10.41541 46.736918,-20.83084 70.105388,-31.24626 0,-31.97863 0,-63.95726 0,-95.935896 -23.36847,10.41542 -46.736928,20.830836 -70.105388,31.246256 z"
           style="fill:#d6b1ff;fill-opacity:1;fill-rule:evenodd;stroke:none;stroke-width:3.59023356;stroke-linecap:butt;stroke-linejoin:miter;stroke-miterlimit:4;stroke-dasharray:none;stroke-opacity:1" />
        <path
           inkscape:connector-curvature="0"
           id="path4309"
           d="m -146.10752,80.195704 c 22.68048,10.10845 45.36097,20.216876 68.041472,30.325316 22.68126,-10.10844 45.362538,-20.216866 68.043798,-30.325316 -22.68126,-10.10844 -45.362538,-20.21688 -68.043798,-30.325323 -22.680502,10.108443 -45.360992,20.216883 -68.041472,30.325323 z"
           style="fill:#d6b1ff;fill-opacity:1;fill-rule:evenodd;stroke:none;stroke-width:3.59023356;stroke-linecap:butt;stroke-linejoin:miter;stroke-miterlimit:4;stroke-dasharray:none;stroke-opacity:1" />
      </g>
      <path
         inkscape:connector-curvature="0"
         id="path4321"
         d="m -316.10866,242.95027 v 95.93588 l -35.05153,15.62313 V 258.5734 Z"
         style="fill:#7700ff;fill-opacity:1;fill-rule:evenodd;stroke:none;stroke-width:1px;stroke-linecap:butt;stroke-linejoin:miter;stroke-opacity:1" />
      <path
         sodipodi:nodetypes="ccccc"
         inkscape:connector-curvature="0"
         id="path4323"
         d="m -390.73807,205.65484 -34.0219,15.16266 68.0438,30.32532 34.02073,-15.16266 z"
         style="fill:#7700ff;fill-opacity:1;fill-rule:evenodd;stroke:none;stroke-width:1px;stroke-linecap:butt;stroke-linejoin:miter;stroke-opacity:1" />
    </g>
    <g
       id="g4367"
       transform="matrix(0.09379679,0,0,0.09392019,161.22428,384.5027)">
      <g
         transform="translate(-195.55921,308.25436)"
         id="g4331">
        <path
           style="fill:#d6b1ff;fill-opacity:1;fill-rule:evenodd;stroke:none;stroke-width:3.59023356;stroke-linecap:butt;stroke-linejoin:miter;stroke-miterlimit:4;stroke-dasharray:none;stroke-opacity:1"
           d="m -152.6943,183.1017 c 23.36768,10.41542 46.73538,20.83085 70.103062,31.24626 0,-31.97863 0,-63.95727 0,-95.9359 -23.367682,-10.41542 -46.735382,-20.830836 -70.103062,-31.246256 0,31.978636 0,63.957266 0,95.935896 z"
           id="path4325"
           inkscape:connector-curvature="0" />
        <path
           style="fill:#d6b1ff;fill-opacity:1;fill-rule:evenodd;stroke:none;stroke-width:3.59023356;stroke-linecap:butt;stroke-linejoin:miter;stroke-miterlimit:4;stroke-dasharray:none;stroke-opacity:1"
           d="m -73.540858,118.41206 c 0,31.97863 0,63.95727 0,95.9359 23.36846,-10.41541 46.736918,-20.83084 70.105388,-31.24626 0,-31.97863 0,-63.95726 0,-95.935896 -23.36847,10.41542 -46.736928,20.830836 -70.105388,31.246256 z"
           id="path4327"
           inkscape:connector-curvature="0" />
        <path
           style="fill:#d6b1ff;fill-opacity:1;fill-rule:evenodd;stroke:none;stroke-width:3.59023356;stroke-linecap:butt;stroke-linejoin:miter;stroke-miterlimit:4;stroke-dasharray:none;stroke-opacity:1"
           d="m -146.10752,80.195704 c 22.68048,10.10845 45.36097,20.216876 68.041472,30.325316 22.68126,-10.10844 45.362538,-20.216866 68.043798,-30.325316 -22.68126,-10.10844 -45.362538,-20.21688 -68.043798,-30.325323 -22.680502,10.108443 -45.360992,20.216883 -68.041472,30.325323 z"
           id="path4329"
           inkscape:connector-curvature="0" />
      </g>
      <path
         inkscape:connector-curvature="0"
         id="path4337"
         d="m -348.25351,395.42017 v 95.93588 l 35.05153,15.62313 V 411.0433 Z"
         style="fill:#7700ff;fill-opacity:1;fill-rule:evenodd;stroke:none;stroke-width:1px;stroke-linecap:butt;stroke-linejoin:miter;stroke-opacity:1" />
      <path
         sodipodi:nodetypes="ccccc"
         inkscape:connector-curvature="0"
         id="path4339"
         d="m -273.6241,358.12474 34.0219,15.16266 -68.0438,30.32532 -34.02073,-15.16266 z"
         style="fill:#7700ff;fill-opacity:1;fill-rule:evenodd;stroke:none;stroke-width:1px;stroke-linecap:butt;stroke-linejoin:miter;stroke-opacity:1" />
    </g>
  </g>
</svg>
