<?xml version="1.0" encoding="UTF-8" standalone="no"?>
<!-- Created with Inkscape (http://www.inkscape.org/) -->

<svg
   xmlns:dc="http://purl.org/dc/elements/1.1/"
   xmlns:cc="http://creativecommons.org/ns#"
   xmlns:rdf="http://www.w3.org/1999/02/22-rdf-syntax-ns#"
   xmlns:svg="http://www.w3.org/2000/svg"
   xmlns="http://www.w3.org/2000/svg"
   xmlns:sodipodi="http://sodipodi.sourceforge.net/DTD/sodipodi-0.dtd"
   xmlns:inkscape="http://www.inkscape.org/namespaces/inkscape"
   width="177.16534"
   height="177.16534"
   id="svg2"
   version="1.1"
   inkscape:version="0.48.4 r9939"
   sodipodi:docname="undo.svg"
   inkscape:export-filename="/home/tandk/git/code/src/net/sourceforge/jocular/icons/undo.svg.png"
   inkscape:export-xdpi="8.1300001"
   inkscape:export-ydpi="8.1300001">
  <defs
     id="defs4" />
  <sodipodi:namedview
     id="base"
     pagecolor="#ffffff"
     bordercolor="#666666"
     borderopacity="1.0"
     inkscape:pageopacity="0.0"
     inkscape:pageshadow="2"
     inkscape:zoom="1.4000001"
     inkscape:cx="-48.659653"
     inkscape:cy="96.584854"
     inkscape:document-units="mm"
     inkscape:current-layer="layer1"
     showgrid="true"
     width="0px"
     height="0px"
     fit-margin-top="0"
     fit-margin-left="0"
     fit-margin-right="0"
     fit-margin-bottom="0"
     inkscape:snap-object-midpoints="false"
     inkscape:snap-center="false"
     showguides="true"
     inkscape:guide-bbox="true"
     inkscape:object-nodes="false"
     inkscape:window-width="1317"
     inkscape:window-height="744"
     inkscape:window-x="49"
     inkscape:window-y="24"
     inkscape:window-maximized="1"
     inkscape:snap-nodes="true"
     units="mm"
     inkscape:snap-global="true"
     inkscape:snap-grids="true"
     inkscape:snap-bbox="true"
     inkscape:snap-midpoints="true">
    <inkscape:grid
       type="xygrid"
       id="grid778"
       empspacing="5"
       visible="true"
       enabled="true"
       snapvisiblegridlinesonly="true"
       units="mm"
       spacingx="1mm"
       spacingy="1mm"
       originx="0mm"
       originy="0mm" />
  </sodipodi:namedview>
  <metadata
     id="metadata7">
    <rdf:RDF>
      <cc:Work
         rdf:about="">
        <dc:format>image/svg+xml</dc:format>
        <dc:type
           rdf:resource="http://purl.org/dc/dcmitype/StillImage" />
        <dc:title></dc:title>
      </cc:Work>
    </rdf:RDF>
  </metadata>
  <g
     inkscape:label="Layer 1"
     inkscape:groupmode="layer"
     id="layer1"
     transform="translate(-127.55906,-237.4016)">
    <path
       sodipodi:type="arc"
       style="color:#000000;fill:#ffffff;fill-opacity:1;fill-rule:nonzero;stroke:none;stroke-width:0.35433072;marker:none;visibility:visible;display:inline;overflow:visible;enable-background:accumulate"
       id="path784"
       sodipodi:cx="106.29921"
       sodipodi:cy="503.1496"
       sodipodi:rx="28.346453"
       sodipodi:ry="28.346453"
       d="m 134.64566,503.1496 c 0,15.65531 -12.69114,28.34645 -28.34645,28.34645 -15.655314,0 -28.346453,-12.69114 -28.346453,-28.34645 0,-15.65532 12.691139,-28.34646 28.346453,-28.34646 15.65531,0 28.34645,12.69114 28.34645,28.34646 z"
       transform="translate(-219.31397,-124.62906)" />
    <path
       inkscape:transform-center-x="26.574795"
       inkscape:connector-curvature="0"
       id="path808"
       d="m -113.01476,378.52055 -67.32283,-1e-5"
       style="color:#000000;fill:none;stroke:#ffffff;stroke-width:14.17322826;stroke-linecap:butt;stroke-linejoin:miter;stroke-miterlimit:4;stroke-opacity:1;stroke-dasharray:none;stroke-dashoffset:0;marker:none;visibility:visible;display:inline;overflow:visible;enable-background:accumulate"
       sodipodi:nodetypes="cc" />
    <path
       sodipodi:type="arc"
       style="color:#000000;fill:#7700ff;fill-opacity:1;stroke:none;stroke-width:0.35433072;marker:none;visibility:visible;display:inline;overflow:visible;enable-background:accumulate"
       id="path780"
       sodipodi:cx="230.31496"
       sodipodi:cy="379.13385"
       sodipodi:rx="88.58268"
       sodipodi:ry="88.58268"
       d="m 318.89764,379.13385 c 0,48.92286 -39.65982,88.58268 -88.58268,88.58268 -48.92287,0 -88.58268,-39.65982 -88.58268,-88.58268 0,-48.92286 39.65981,-88.58268 88.58268,-88.58268 48.92286,0 88.58268,39.65982 88.58268,88.58268 z"
       transform="translate(-307.89664,-36.04637)" />
    <path
       sodipodi:type="arc"
       style="color:#000000;fill:#ffffff;fill-opacity:1;fill-rule:nonzero;stroke:none;stroke-width:14.17322826;marker:none;visibility:visible;display:inline;overflow:visible;enable-background:accumulate"
       id="path874"
       sodipodi:cx="230.31496"
       sodipodi:cy="325.98422"
       sodipodi:rx="76.317375"
       sodipodi:ry="76.317375"
       d="m 306.63233,325.98422 c 0,42.14892 -34.16845,76.31738 -76.31737,76.31738 -42.14893,0 -76.31738,-34.16846 -76.31738,-76.31738 0,-42.14892 34.16845,-76.31737 76.31738,-76.31737 42.14892,0 76.31737,34.16845 76.31737,76.31737 z"
       transform="matrix(0.67321437,0,0,0.67321438,-255.66452,146.66171)" />
    <path
       transform="translate(-219.31397,-124.62905)"
       d="m 138.18896,503.1496 c 0,17.61222 -14.27753,31.88975 -31.88975,31.88975 -17.612225,0 -31.889754,-14.27753 -31.889754,-31.88975 0,-17.61223 14.277529,-31.88976 31.889754,-31.88976 17.61222,0 31.88975,14.27753 31.88975,31.88976 z"
       sodipodi:ry="31.889753"
       sodipodi:rx="31.889753"
       sodipodi:cy="503.1496"
       sodipodi:cx="106.29921"
       id="path816"
       style="color:#000000;fill:#7700ff;fill-opacity:1;fill-rule:nonzero;stroke:none;stroke-width:0.35433072;marker:none;visibility:visible;display:inline;overflow:visible;enable-background:accumulate"
       sodipodi:type="arc" />
    <path
       style="fill:#d6b1ff;fill-opacity:1;stroke:#000000;stroke-width:1px;stroke-linecap:butt;stroke-linejoin:miter;stroke-opacity:0"
       d="M 8.6481348,363.50481 -151.82062,374.97356 c -0.10577,1.17072 -0.15625,2.36435 -0.15625,3.5625 0,1.19815 0.0505,2.39196 0.15625,3.5625 l 147.6875048,10.53125 c 5.89387,-8.72407 10.29059,-18.56483 12.78125,-29.125 z"
       id="path2995"
       inkscape:connector-curvature="0" />
    <path
       sodipodi:type="arc"
       style="color:#000000;fill:#d6b1ff;fill-opacity:1;fill-rule:nonzero;stroke:none;stroke-width:0.35433072;marker:none;visibility:visible;display:inline;overflow:visible;enable-background:accumulate"
       id="path784-4-9"
       sodipodi:cx="106.29921"
       sodipodi:cy="503.1496"
       sodipodi:rx="38.976368"
       sodipodi:ry="38.976368"
       d="m 145.27558,503.1496 c 0,21.52605 -17.45032,38.97637 -38.97637,38.97637 -21.526054,0 -38.976368,-17.45032 -38.976368,-38.97637 0,-21.52606 17.450314,-38.97637 38.976368,-38.97637 21.52605,0 38.97637,17.45031 38.97637,38.97637 z"
       transform="translate(-219.31397,-124.62905)" />
    <path
       style="fill:#d6b1ff;fill-opacity:1;stroke:#000000;stroke-width:1px;stroke-linecap:butt;stroke-linejoin:miter;stroke-opacity:0"
       d="M -27.383115,270.09856 -142.69562,403.12981 c 1.61668,1.75232 3.31059,3.44539 5.0625,5.0625 L -4.6018652,292.91106 c -6.1458898,-8.92134 -13.8599098,-16.66661 -22.7812498,-22.8125 z"
       id="path2999"
       inkscape:connector-curvature="0" />
    <path
       transform="translate(-219.31397,-124.62905)"
       d="m 127.55904,503.1496 c 0,11.74148 -9.51835,21.25983 -21.25983,21.25983 -11.741483,0 -21.259835,-9.51835 -21.259835,-21.25983 0,-11.74149 9.518352,-21.25984 21.259835,-21.25984 11.74148,0 21.25983,9.51835 21.25983,21.25984 z"
       sodipodi:ry="21.259834"
       sodipodi:rx="21.259834"
       sodipodi:cy="503.1496"
       sodipodi:cx="106.29921"
       id="path816-0-4"
       style="color:#000000;fill:#7700ff;fill-opacity:1;fill-rule:nonzero;stroke:none;stroke-width:0.35433072;marker:none;visibility:visible;display:inline;overflow:visible;enable-background:accumulate"
       sodipodi:type="arc" />
    <path
       sodipodi:type="arc"
       style="color:#000000;fill:none;stroke:#7700ff;stroke-width:32.598423;stroke-miterlimit:4;stroke-opacity:1;stroke-dasharray:none;marker:none;visibility:visible;display:inline;overflow:visible;enable-background:accumulate"
       id="path2994"
       sodipodi:cx="88.58268"
       sodipodi:cy="88.582664"
       sodipodi:rx="69.271652"
       sodipodi:ry="69.271652"
       d="M 19.311028,88.582661 A 69.271652,69.271652 0 1 1 88.582682,157.85432"
       transform="matrix(0.61487548,0.61487548,0.61487548,-0.61487548,107.20712,325.98426)"
       sodipodi:start="3.1415927"
       sodipodi:end="7.8539816"
       sodipodi:open="true"
       inkscape:export-filename="/home/tandk/git/code/src/net/sourceforge/jocular/icons/redo.png"
       inkscape:export-xdpi="8.1300001"
       inkscape:export-ydpi="8.1300001" />
    <path
       style="fill:#7700ff;fill-opacity:1;stroke:#7700ff;stroke-width:1px;stroke-linecap:butt;stroke-linejoin:miter;stroke-opacity:1"
       d="m 228.66923,253.32486 12.52749,47.60444 35.07695,-35.07695 z"
       id="path3764"
       inkscape:connector-curvature="0"
       sodipodi:nodetypes="cccc"
       inkscape:transform-center-x="-36.32971"
       inkscape:transform-center-y="-48.857187"
       inkscape:export-filename="/home/tandk/git/code/src/net/sourceforge/jocular/icons/redo.png"
       inkscape:export-xdpi="8.1300001"
       inkscape:export-ydpi="8.1300001" />
  </g>
</svg>
